<?xml version="1.0" encoding="UTF-8"?>
<!DOCTYPE svg PUBLIC "-//W3C//DTD SVG 1.1//EN" "http://www.w3.org/Graphics/SVG/1.1/DTD/svg11.dtd">
<!-- Creator: CorelDRAW 2019 (64-Bit) -->
<svg xmlns="http://www.w3.org/2000/svg" xml:space="preserve" width="2.57356in" height="0.370437in" version="1.1" style="shape-rendering:geometricPrecision; text-rendering:geometricPrecision; image-rendering:optimizeQuality; fill-rule:evenodd; clip-rule:evenodd"
viewBox="0 0 2861.99 411.95"
 xmlns:xlink="http://www.w3.org/1999/xlink"
 xmlns:xodm="http://www.corel.com/coreldraw/odm/2003">
 <defs>
  <style type="text/css">
   <![CDATA[
    .fil0 {fill:#FEFEFE;fill-rule:nonzero}
   ]]>
  </style>
   <clipPath id="id0">
    <path d="M-0 0l368.88 1.86 2.44 410.1 -368.88 -1.86 -2.44 -410.1z"/>
   </clipPath>
 </defs>
 <g id="Layer_x0020_1">
  <metadata id="CorelCorpID_0Corel-Layer"/>
  <g style="clip-path:url(#id0)">
   <image x="-384.21" y="-396.63" width="1228.9" height="1638.54" xlink:href="Paindoc Logo white_Images\Paindoc Logo white_ImgID1.png"/>
  </g>
  <path class="fil0" d="M477.26 163.68l11.42 0c10.49,0 17.85,-1.39 22.11,-4.2 4.23,-2.78 6.37,-7.53 6.37,-14.18 0,-6.79 -2.04,-11.59 -6.11,-14.32 -4.09,-2.75 -11.99,-4.12 -23.7,-4.12l-10.08 0 0 36.82zm0 41.09c0,4.6 0.63,7.53 1.87,8.75 1.25,1.22 4.43,1.82 9.54,1.82l8.01 0 0 12.96 -61.37 0 0 -12.96 6.65 0c5.06,0 8.21,-0.6 9.43,-1.79 1.23,-1.2 1.82,-4.12 1.82,-8.78l0 -67.34c0,-4.66 -0.6,-7.59 -1.82,-8.78 -1.22,-1.2 -4.37,-1.79 -9.43,-1.79l-6.65 0 0 -12.96 60.2 0c15.43,0 27.05,2.64 34.92,7.92 7.84,5.26 11.76,13.1 11.76,23.47 0,5.68 -1.08,10.63 -3.21,14.83 -2.13,4.23 -5.37,7.82 -9.69,10.77 -3.1,2.04 -7.44,3.52 -12.98,4.4 -5.54,0.88 -13.3,1.34 -23.21,1.34l-15.85 0 0 28.13z"/>
  <path id="1" class="fil0" d="M607.84 178.34l-14.83 -39.55 -13.47 39.55 28.3 0zm-74.47 49.95l0 -12.96 3.55 0c4.32,0 7.56,-0.77 9.69,-2.3 2.13,-1.53 3.98,-4.46 5.54,-8.78l31.88 -90.35 23.98 0 34.12 90.35c1.93,5.26 3.72,8.44 5.37,9.49 1.62,1.06 4.43,1.59 8.44,1.59l3.41 0 0 12.96 -59.19 0 0 -12.96 9.23 0c3.72,0 6.25,-0.32 7.56,-0.97 1.28,-0.63 1.93,-1.79 1.93,-3.46 0,-0.6 -0.09,-1.31 -0.28,-2.08 -0.2,-0.77 -0.6,-1.96 -1.2,-3.49l-4.91 -13.52 -37.71 0 -4.91 14.43c-0.11,0.4 -0.32,0.97 -0.57,1.76 -0.57,1.59 -0.85,2.73 -0.85,3.41 0,1.51 0.54,2.53 1.62,3.1 1.08,0.54 3.64,0.82 7.61,0.82l8.84 0 0 12.96 -53.16 0z"/>
  <path id="2" class="fil0" d="M662.78 228.29l0 -12.96 7.33 0c5.06,0 8.21,-0.6 9.43,-1.79 1.22,-1.2 1.82,-4.12 1.82,-8.78l0 -67.34c0,-4.66 -0.6,-7.59 -1.82,-8.78 -1.22,-1.2 -4.37,-1.79 -9.43,-1.79l-7.33 0 0 -12.96 61.71 0 0 12.96 -7.3 0c-5.08,0 -8.24,0.6 -9.46,1.79 -1.23,1.19 -1.82,4.12 -1.82,8.78l0 67.34c0,4.66 0.6,7.58 1.82,8.78 1.22,1.2 4.37,1.79 9.46,1.79l7.3 0 0 12.96 -61.71 0z"/>
  <path id="3" class="fil0" d="M848.97 228.29l-24.09 0 -56.88 -93.19 0 69.67c0,4.66 0.63,7.58 1.85,8.78 1.22,1.2 4.35,1.79 9.4,1.79l7.84 0 0 12.96 -56.26 0 0 -12.96 8.01 0c5.06,0 8.18,-0.6 9.4,-1.79 1.22,-1.2 1.85,-4.12 1.85,-8.78l0 -67.34c0,-4.66 -0.63,-7.59 -1.85,-8.78 -1.22,-1.2 -4.35,-1.79 -9.4,-1.79l-7.36 0 0 -12.96 48.96 0 50.63 83.05 0 -59.52c0,-4.66 -0.6,-7.59 -1.82,-8.78 -1.22,-1.2 -4.35,-1.79 -9.37,-1.79l-8.07 0 0 -12.96 54.04 0 0 12.96 -5.49 0c-5.11,0 -8.27,0.6 -9.52,1.82 -1.25,1.22 -1.87,4.15 -1.87,8.75l0 90.86z"/>
  <path id="4" class="fil0" d="M926 228.29l0 -12.96 6.65 0c5.06,0 8.21,-0.6 9.43,-1.79 1.23,-1.2 1.82,-4.12 1.82,-8.78l0 -67.34c0,-4.66 -0.6,-7.59 -1.82,-8.78 -1.22,-1.2 -4.37,-1.79 -9.43,-1.79l-6.65 0 0 -12.96 64.92 0c19.97,0 35.09,4.83 45.35,14.49 10.25,9.66 15.37,23.87 15.37,42.62 0,18.75 -5.14,32.99 -15.4,42.7 -10.28,9.72 -25.4,14.58 -45.31,14.58l-64.92 0zm41.93 -12.96l14.97 0c8.95,0 15.63,-0.68 20.06,-2.08 4.46,-1.39 8.3,-3.75 11.51,-7.08 3.21,-3.32 5.74,-8.1 7.61,-14.32 1.85,-6.22 2.78,-13.16 2.78,-20.83 0,-7.64 -0.94,-14.55 -2.78,-20.71 -1.87,-6.16 -4.4,-10.91 -7.61,-14.23 -3.21,-3.32 -7.04,-5.68 -11.51,-7.1 -4.43,-1.42 -11.11,-2.13 -20.06,-2.13l-14.97 0 0 88.48z"/>
  <path id="5" class="fil0" d="M1093.4 171.01c0,14.77 3.18,26.28 9.57,34.52 6.37,8.24 15.2,12.36 26.54,12.36 11.3,0 20.11,-4.12 26.48,-12.33 6.34,-8.21 9.52,-19.72 9.52,-34.55 0,-14.78 -3.16,-26.26 -9.49,-34.44 -6.31,-8.18 -15.14,-12.27 -26.51,-12.27 -11.34,0 -20.17,4.09 -26.54,12.27 -6.39,8.18 -9.57,19.66 -9.57,34.44zm-26.94 0c0,-18.1 5.8,-32.67 17.36,-43.76 11.56,-11.05 26.79,-16.59 45.69,-16.59 18.92,0 34.12,5.54 45.66,16.59 11.51,11.08 17.27,25.66 17.27,43.76 0,18.15 -5.77,32.76 -17.33,43.87 -11.54,11.11 -26.74,16.65 -45.6,16.65 -18.9,0 -34.12,-5.57 -45.69,-16.68 -11.56,-11.14 -17.36,-25.74 -17.36,-43.84z"/>
  <path id="6" class="fil0" d="M1296.26 183.97l14.66 0c-1.11,15.23 -5.8,26.96 -14.04,35.28 -8.24,8.3 -19.38,12.45 -33.41,12.45 -8.38,0 -15.94,-1.31 -22.73,-3.92 -6.76,-2.61 -12.82,-6.59 -18.13,-11.99 -5.88,-5.83 -10.34,-12.56 -13.35,-20.17 -3.04,-7.64 -4.54,-15.82 -4.54,-24.6 0,-8.81 1.48,-16.91 4.4,-24.26 2.95,-7.36 7.39,-14.01 13.32,-19.95 5.37,-5.37 11.39,-9.43 18.07,-12.19 6.65,-2.75 13.81,-4.12 21.45,-4.12 6.11,0 11.87,0.97 17.27,2.87 5.4,1.93 10.71,4.89 15.94,8.86l3.44 -10.2 12.3 0 0 46.88 -13.13 0c-1.34,-10.94 -4.83,-19.44 -10.51,-25.43 -5.71,-5.99 -13.04,-9.01 -22.02,-9.01 -10.48,0 -18.7,4.18 -24.66,12.56 -5.97,8.38 -8.95,19.97 -8.95,34.81 0,14.09 2.95,24.97 8.89,32.64 5.94,7.7 14.29,11.54 25.03,11.54 8.38,0 15.17,-2.73 20.37,-8.21 5.2,-5.46 8.63,-13.41 10.31,-23.84z"/>
  <path id="7" class="fil0" d="M1364.96 126.51l-2.25 0c-9.12,0 -15.77,2.73 -19.92,8.18 -4.15,5.49 -6.3,14.35 -6.48,26.59l-13.13 0 0 -47.39 107.74 0 0 47.39 -13.13 0c-0.11,-12.1 -2.25,-20.91 -6.42,-26.45 -4.15,-5.54 -10.8,-8.33 -19.89,-8.33l-2.5 0 0 78.25c0,4.6 0.63,7.53 1.87,8.75 1.25,1.22 4.43,1.82 9.52,1.82l9.75 0 0 12.96 -66.31 0 0 -12.96 9.92 0c5.03,0 8.18,-0.6 9.4,-1.79 1.22,-1.2 1.82,-4.12 1.82,-8.78l0 -78.25z"/>
  <path id="8" class="fil0" d="M1467.95 171.01c0,14.77 3.18,26.28 9.57,34.52 6.37,8.24 15.2,12.36 26.54,12.36 11.3,0 20.11,-4.12 26.48,-12.33 6.34,-8.21 9.52,-19.72 9.52,-34.55 0,-14.78 -3.16,-26.26 -9.49,-34.44 -6.31,-8.18 -15.14,-12.27 -26.51,-12.27 -11.34,0 -20.17,4.09 -26.54,12.27 -6.39,8.18 -9.57,19.66 -9.57,34.44zm-26.94 0c0,-18.1 5.8,-32.67 17.36,-43.76 11.56,-11.05 26.79,-16.59 45.69,-16.59 18.92,0 34.12,5.54 45.66,16.59 11.51,11.08 17.27,25.66 17.27,43.76 0,18.15 -5.77,32.76 -17.33,43.87 -11.54,11.11 -26.74,16.65 -45.6,16.65 -18.9,0 -34.12,-5.57 -45.69,-16.68 -11.56,-11.14 -17.36,-25.74 -17.36,-43.84z"/>
  <path id="9" class="fil0" d="M1618.99 161.29l20.17 0c8.1,0 14.04,-1.36 17.82,-4.12 3.78,-2.73 5.65,-7.1 5.65,-13.1 0,-6.17 -1.79,-10.57 -5.4,-13.21 -3.61,-2.67 -9.83,-4.01 -18.64,-4.01l-19.6 0 0 34.43zm0 43.44c0,4.63 0.63,7.53 1.87,8.75 1.25,1.22 4.43,1.85 9.54,1.85l8.01 0 0 12.96 -61.37 0 0 -12.96 6.65 0c5.06,0 8.21,-0.6 9.43,-1.79 1.23,-1.2 1.82,-4.12 1.82,-8.81l0 -67.31c0,-4.66 -0.6,-7.59 -1.82,-8.78 -1.22,-1.2 -4.37,-1.79 -9.43,-1.79l-6.65 0 0 -12.96 68.33 0c14.32,0 24.95,2.25 31.91,6.73 6.93,4.52 10.4,11.42 10.4,20.74 0,8.21 -2.75,14.78 -8.3,19.69 -5.51,4.92 -13.66,8.01 -24.46,9.29 8.18,1.22 13.89,3.52 17.16,6.94 3.24,3.44 5.14,9.35 5.71,17.78l0.74 10.26c0.28,4.01 0.77,6.59 1.51,7.81 0.71,1.22 1.9,1.85 3.56,1.85 3.29,0 5.06,-6.25 5.28,-18.75 0,-0.23 0,-0.4 0,-0.48l10.82 0c0.11,0.71 0.2,1.48 0.23,2.27 0.03,0.8 0.03,1.96 0.03,3.47 0,10.48 -1.9,18.13 -5.71,22.96 -3.78,4.83 -9.8,7.25 -18.01,7.25 -6.76,0 -12.08,-1.85 -15.91,-5.57 -3.81,-3.72 -5.85,-8.87 -6.05,-15.49l-0.51 -13.41c-0.34,-8.92 -2.3,-15 -5.94,-18.18 -3.63,-3.21 -10.51,-4.8 -20.65,-4.8l-8.18 0 0 30.49z"/>
  <path id="10" class="fil0" d="M1712.41 228.29l0 -47.22 13.3 0c1.82,11.36 6.05,20.06 12.67,26.08 6.59,6.02 15.18,9.04 25.71,9.04 7.61,0 13.44,-1.28 17.45,-3.84 4.03,-2.56 6.05,-6.22 6.05,-11.05 0,-4.35 -1.53,-7.87 -4.63,-10.57 -3.07,-2.73 -8.01,-4.86 -14.77,-6.42l-18.58 -4.32c-13.33,-3.1 -22.9,-7.3 -28.75,-12.61 -5.85,-5.28 -8.78,-12.39 -8.78,-21.25 0,-10.77 3.75,-19.4 11.25,-25.88 7.47,-6.51 17.5,-9.75 30.06,-9.75 6.19,0 12.02,0.97 17.44,2.87 5.4,1.9 10.66,4.86 15.77,8.86l5.97 -8.32 10.2 0 0 43.3 -12.92 0c-1.96,-10.37 -6.06,-18.44 -12.3,-24.15 -6.22,-5.71 -14.09,-8.58 -23.52,-8.58 -6.88,0 -12.22,1.28 -16,3.87 -3.78,2.58 -5.65,6.19 -5.65,10.79 0,3.9 1.34,6.99 4.01,9.32 2.67,2.33 6.93,4.18 12.81,5.51l23.07 5.31c12.22,2.78 21.37,7.13 27.42,13.04 6.05,5.91 9.06,13.44 9.06,22.59 0,10.82 -3.98,19.66 -11.9,26.51 -7.96,6.85 -18.24,10.28 -30.91,10.28 -6.37,0 -12.7,-1.16 -18.98,-3.49 -6.28,-2.33 -12.62,-5.91 -19.07,-10.68l-3.75 10.77 -11.71 0z"/>
  <path id="11" class="fil0" d="M1900.95 171.01c0,14.77 3.18,26.28 9.57,34.52 6.37,8.24 15.2,12.36 26.54,12.36 11.3,0 20.11,-4.12 26.48,-12.33 6.34,-8.21 9.52,-19.72 9.52,-34.55 0,-14.78 -3.16,-26.26 -9.49,-34.44 -6.31,-8.18 -15.14,-12.27 -26.51,-12.27 -11.34,0 -20.17,4.09 -26.54,12.27 -6.39,8.18 -9.57,19.66 -9.57,34.44zm-26.94 0c0,-18.1 5.8,-32.67 17.36,-43.76 11.56,-11.05 26.79,-16.59 45.69,-16.59 18.92,0 34.12,5.54 45.66,16.59 11.51,11.08 17.27,25.66 17.27,43.76 0,18.15 -5.77,32.76 -17.33,43.87 -11.54,11.11 -26.74,16.65 -45.6,16.65 -18.9,0 -34.12,-5.57 -45.69,-16.68 -11.56,-11.14 -17.36,-25.74 -17.36,-43.84z"/>
  <path id="12" class="fil0" d="M2010.06 228.29l0 -12.96 6.65 0c5.06,0 8.21,-0.6 9.43,-1.79 1.23,-1.2 1.82,-4.15 1.82,-8.84l0 -67.34c0,-4.63 -0.6,-7.56 -1.82,-8.72 -1.22,-1.2 -4.37,-1.79 -9.43,-1.79l-6.65 0 0 -12.96 106.37 0 0 47.39 -13.13 0c0,-5.94 -0.4,-10.99 -1.17,-15.17 -0.77,-4.21 -1.96,-7.76 -3.58,-10.71 -1.68,-3.04 -4.4,-5.23 -8.18,-6.56 -3.78,-1.34 -9.46,-1.99 -17.08,-1.99l-21.31 0 0 35.12 2.92 0c7.16,0 11.85,-1.25 14.06,-3.72 2.22,-2.47 3.61,-8.16 4.15,-17.08l12.96 -0.09 0 57.36 -12.96 -0.08c-0.51,-9.8 -1.87,-16.14 -4.12,-18.98 -2.25,-2.87 -6.88,-4.29 -13.92,-4.29l-3.1 0 0 29.61c0,4.63 0.63,7.56 1.87,8.78 1.25,1.22 4.43,1.85 9.54,1.85l8.01 0 0 12.96 -61.37 0z"/>
  <path id="13" class="fil0" d="M2249.68 178.34l-14.83 -39.55 -13.47 39.55 28.3 0zm-74.47 49.95l0 -12.96 3.55 0c4.32,0 7.56,-0.77 9.69,-2.3 2.13,-1.53 3.98,-4.46 5.54,-8.78l31.88 -90.35 23.98 0 34.12 90.35c1.93,5.26 3.72,8.44 5.37,9.49 1.62,1.06 4.43,1.59 8.44,1.59l3.41 0 0 12.96 -59.19 0 0 -12.96 9.23 0c3.72,0 6.25,-0.32 7.56,-0.97 1.28,-0.63 1.93,-1.79 1.93,-3.46 0,-0.6 -0.09,-1.31 -0.28,-2.08 -0.2,-0.77 -0.6,-1.96 -1.2,-3.49l-4.91 -13.52 -37.71 0 -4.91 14.43c-0.11,0.4 -0.32,0.97 -0.57,1.76 -0.57,1.59 -0.85,2.73 -0.85,3.41 0,1.51 0.54,2.53 1.62,3.1 1.08,0.54 3.64,0.82 7.61,0.82l8.84 0 0 12.96 -53.16 0z"/>
  <path id="14" class="fil0" d="M2304.29 228.29l0 -12.96 6.65 0c5.06,0 8.21,-0.6 9.43,-1.79 1.23,-1.2 1.82,-4.15 1.82,-8.84l0 -67.34c0,-4.63 -0.6,-7.56 -1.82,-8.72 -1.22,-1.2 -4.37,-1.79 -9.43,-1.79l-6.65 0 0 -12.96 106.37 0 0 47.39 -13.13 0c0,-5.94 -0.4,-10.99 -1.17,-15.17 -0.77,-4.21 -1.96,-7.76 -3.58,-10.71 -1.68,-3.04 -4.4,-5.23 -8.18,-6.56 -3.78,-1.34 -9.46,-1.99 -17.08,-1.99l-21.31 0 0 35.12 2.92 0c7.16,0 11.85,-1.25 14.06,-3.72 2.22,-2.47 3.61,-8.16 4.15,-17.08l12.96 -0.09 0 57.36 -12.96 -0.08c-0.51,-9.8 -1.87,-16.14 -4.12,-18.98 -2.25,-2.87 -6.88,-4.29 -13.92,-4.29l-3.1 0 0 29.61c0,4.63 0.63,7.56 1.87,8.78 1.25,1.22 4.43,1.85 9.54,1.85l8.01 0 0 12.96 -61.37 0z"/>
  <path id="15" class="fil0" d="M2464.5 161.29l20.17 0c8.1,0 14.04,-1.36 17.82,-4.12 3.78,-2.73 5.65,-7.1 5.65,-13.1 0,-6.17 -1.79,-10.57 -5.4,-13.21 -3.61,-2.67 -9.83,-4.01 -18.64,-4.01l-19.6 0 0 34.43zm0 43.44c0,4.63 0.63,7.53 1.87,8.75 1.25,1.22 4.43,1.85 9.54,1.85l8.01 0 0 12.96 -61.37 0 0 -12.96 6.65 0c5.06,0 8.21,-0.6 9.43,-1.79 1.23,-1.2 1.82,-4.12 1.82,-8.81l0 -67.31c0,-4.66 -0.6,-7.59 -1.82,-8.78 -1.22,-1.2 -4.37,-1.79 -9.43,-1.79l-6.65 0 0 -12.96 68.33 0c14.32,0 24.95,2.25 31.91,6.73 6.93,4.52 10.4,11.42 10.4,20.74 0,8.21 -2.75,14.78 -8.3,19.69 -5.51,4.92 -13.66,8.01 -24.46,9.29 8.18,1.22 13.89,3.52 17.16,6.94 3.24,3.44 5.14,9.35 5.71,17.78l0.74 10.26c0.28,4.01 0.77,6.59 1.51,7.81 0.71,1.22 1.9,1.85 3.56,1.85 3.29,0 5.06,-6.25 5.28,-18.75 0,-0.23 0,-0.4 0,-0.48l10.82 0c0.11,0.71 0.2,1.48 0.23,2.27 0.03,0.8 0.03,1.96 0.03,3.47 0,10.48 -1.9,18.13 -5.71,22.96 -3.78,4.83 -9.8,7.25 -18.01,7.25 -6.76,0 -12.08,-1.85 -15.91,-5.57 -3.81,-3.72 -5.85,-8.87 -6.05,-15.49l-0.51 -13.41c-0.34,-8.92 -2.3,-15 -5.94,-18.18 -3.63,-3.21 -10.51,-4.8 -20.65,-4.8l-8.18 0 0 30.49z"/>
  <path id="16" class="fil0" d="M2554.68 228.29l0 -12.96 7.33 0c5.06,0 8.21,-0.6 9.43,-1.79 1.22,-1.2 1.82,-4.12 1.82,-8.78l0 -67.34c0,-4.66 -0.6,-7.59 -1.82,-8.78 -1.22,-1.2 -4.37,-1.79 -9.43,-1.79l-7.33 0 0 -12.96 61.71 0 0 12.96 -7.3 0c-5.08,0 -8.24,0.6 -9.46,1.79 -1.23,1.19 -1.82,4.12 -1.82,8.78l0 67.34c0,4.66 0.6,7.58 1.82,8.78 1.22,1.2 4.37,1.79 9.46,1.79l7.3 0 0 12.96 -61.71 0z"/>
  <path id="17" class="fil0" d="M2718.36 183.97l14.66 0c-1.11,15.23 -5.8,26.96 -14.04,35.28 -8.24,8.3 -19.38,12.45 -33.41,12.45 -8.38,0 -15.94,-1.31 -22.73,-3.92 -6.76,-2.61 -12.82,-6.59 -18.13,-11.99 -5.88,-5.83 -10.34,-12.56 -13.35,-20.17 -3.04,-7.64 -4.54,-15.82 -4.54,-24.6 0,-8.81 1.48,-16.91 4.4,-24.26 2.95,-7.36 7.39,-14.01 13.32,-19.95 5.37,-5.37 11.39,-9.43 18.07,-12.19 6.65,-2.75 13.81,-4.12 21.45,-4.12 6.11,0 11.87,0.97 17.27,2.87 5.4,1.93 10.71,4.89 15.94,8.86l3.44 -10.2 12.3 0 0 46.88 -13.13 0c-1.34,-10.94 -4.83,-19.44 -10.51,-25.43 -5.71,-5.99 -13.04,-9.01 -22.02,-9.01 -10.48,0 -18.7,4.18 -24.66,12.56 -5.97,8.38 -8.95,19.97 -8.95,34.81 0,14.09 2.95,24.97 8.89,32.64 5.94,7.7 14.29,11.54 25.03,11.54 8.38,0 15.17,-2.73 20.37,-8.21 5.2,-5.46 8.63,-13.41 10.31,-23.84z"/>
  <path id="18" class="fil0" d="M2810.48 178.34l-14.83 -39.55 -13.47 39.55 28.3 0zm-74.47 49.95l0 -12.96 3.55 0c4.32,0 7.56,-0.77 9.69,-2.3 2.13,-1.53 3.98,-4.46 5.54,-8.78l31.88 -90.35 23.98 0 34.12 90.35c1.93,5.26 3.72,8.44 5.37,9.49 1.62,1.06 4.43,1.59 8.44,1.59l3.41 0 0 12.96 -59.19 0 0 -12.96 9.23 0c3.72,0 6.25,-0.32 7.56,-0.97 1.28,-0.63 1.93,-1.79 1.93,-3.46 0,-0.6 -0.09,-1.31 -0.28,-2.08 -0.2,-0.77 -0.6,-1.96 -1.2,-3.49l-4.91 -13.52 -37.71 0 -4.91 14.43c-0.11,0.4 -0.32,0.97 -0.57,1.76 -0.57,1.59 -0.85,2.73 -0.85,3.41 0,1.51 0.54,2.53 1.62,3.1 1.08,0.54 3.64,0.82 7.61,0.82l8.84 0 0 12.96 -53.16 0z"/>
 </g>
</svg>
